<svg width="322" height="62" viewBox="0 0 322 62" fill="none" xmlns="http://www.w3.org/2000/svg">
<path d="M5.576 10.328C4.08267 10.328 2.84533 9.88 1.864 8.984C0.925333 8.088 0.456 6.95733 0.456 5.592C0.456 4.22667 0.925333 3.11733 1.864 2.264C2.84533 1.368 4.08267 0.919998 5.576 0.919998C7.06933 0.919998 8.28533 1.368 9.224 2.264C10.2053 3.11733 10.696 4.22667 10.696 5.592C10.696 6.95733 10.2053 8.088 9.224 8.984C8.28533 9.88 7.06933 10.328 5.576 10.328ZM1.48 47V15.256H9.672V47H1.48ZM29.1665 47.768C26.4358 47.768 24.1958 47.3413 22.4465 46.488C20.6972 45.592 19.3958 44.4187 18.5425 42.968C17.6892 41.5173 17.2625 39.9173 17.2625 38.168C17.2625 35.224 18.4145 32.8347 20.7185 31C23.0225 29.1653 26.4785 28.248 31.0865 28.248H39.1505V27.48C39.1505 25.304 38.5318 23.704 37.2945 22.68C36.0572 21.656 34.5212 21.144 32.6865 21.144C31.0225 21.144 29.5718 21.5493 28.3345 22.36C27.0972 23.128 26.3292 24.28 26.0305 25.816H18.0305C18.2438 23.512 19.0118 21.5067 20.3345 19.8C21.6998 18.0933 23.4492 16.792 25.5825 15.896C27.7158 14.9573 30.1052 14.488 32.7505 14.488C37.2732 14.488 40.8358 15.6187 43.4385 17.88C46.0412 20.1413 47.3425 23.3413 47.3425 27.48V47H40.3665L39.5985 41.88C38.6598 43.5867 37.3372 44.9947 35.6305 46.104C33.9665 47.2133 31.8118 47.768 29.1665 47.768ZM31.0225 41.368C33.3692 41.368 35.1825 40.6 36.4625 39.064C37.7852 37.528 38.6172 35.6293 38.9585 33.368H31.9825C29.8065 33.368 28.2492 33.7733 27.3105 34.584C26.3718 35.352 25.9025 36.312 25.9025 37.464C25.9025 38.7013 26.3718 39.6613 27.3105 40.344C28.2492 41.0267 29.4865 41.368 31.0225 41.368ZM69.752 47.768C66.7653 47.768 64.0987 47.0427 61.752 45.592C59.4053 44.1413 57.5493 42.1573 56.184 39.64C54.8187 37.1227 54.136 34.264 54.136 31.064C54.136 27.864 54.8187 25.0267 56.184 22.552C57.5493 20.0347 59.4053 18.072 61.752 16.664C64.0987 15.2133 66.7653 14.488 69.752 14.488C72.1413 14.488 74.232 14.936 76.024 15.832C77.816 16.728 79.2667 17.9867 80.376 19.608V0.919998H88.568V47H81.272L80.376 42.456C79.352 43.864 77.9867 45.1013 76.28 46.168C74.616 47.2347 72.44 47.768 69.752 47.768ZM71.48 40.6C74.1253 40.6 76.28 39.7253 77.944 37.976C79.6507 36.184 80.504 33.9013 80.504 31.128C80.504 28.3547 79.6507 26.0933 77.944 24.344C76.28 22.552 74.1253 21.656 71.48 21.656C68.8773 21.656 66.7227 22.5307 65.016 24.28C63.3093 26.0293 62.456 28.2907 62.456 31.064C62.456 33.8373 63.3093 36.12 65.016 37.912C66.7227 39.704 68.8773 40.6 71.48 40.6ZM112.334 47.768C109.134 47.768 106.297 47.0853 103.822 45.72C101.347 44.3547 99.406 42.4347 97.998 39.96C96.59 37.4853 95.886 34.6267 95.886 31.384C95.886 28.0987 96.5687 25.176 97.934 22.616C99.342 20.056 101.262 18.072 103.694 16.664C106.169 15.2133 109.07 14.488 112.398 14.488C115.513 14.488 118.265 15.1707 120.654 16.536C123.043 17.9013 124.899 19.7787 126.222 22.168C127.587 24.5147 128.27 27.1387 128.27 30.04C128.27 30.5093 128.249 31 128.206 31.512C128.206 32.024 128.185 32.5573 128.142 33.112H104.014C104.185 35.5867 105.038 37.528 106.574 38.936C108.153 40.344 110.051 41.048 112.27 41.048C113.934 41.048 115.321 40.6853 116.43 39.96C117.582 39.192 118.435 38.2107 118.99 37.016H127.31C126.713 39.0213 125.71 40.856 124.302 42.52C122.937 44.1413 121.23 45.4213 119.182 46.36C117.177 47.2987 114.894 47.768 112.334 47.768ZM112.398 21.144C110.393 21.144 108.622 21.72 107.086 22.872C105.55 23.9813 104.569 25.688 104.142 27.992H119.95C119.822 25.9013 119.054 24.2373 117.646 23C116.238 21.7627 114.489 21.144 112.398 21.144ZM136.632 47V22.104H132.28V15.256H136.632V11.544C136.632 7.704 137.592 4.97333 139.512 3.352C141.475 1.73066 144.12 0.919998 147.448 0.919998H150.968V7.896H148.728C147.32 7.896 146.317 8.17333 145.72 8.728C145.123 9.28266 144.824 10.2213 144.824 11.544V15.256H165.304V47H157.112V22.104H144.824V47H136.632ZM161.272 10.712C159.779 10.712 158.541 10.264 157.56 9.368C156.621 8.472 156.152 7.34133 156.152 5.976C156.152 4.61066 156.621 3.50133 157.56 2.648C158.541 1.752 159.779 1.304 161.272 1.304C162.765 1.304 163.981 1.752 164.92 2.648C165.901 3.50133 166.392 4.61066 166.392 5.976C166.392 7.34133 165.901 8.472 164.92 9.368C163.981 10.264 162.765 10.712 161.272 10.712ZM188.565 47.768C185.578 47.768 182.911 47.0427 180.565 45.592C178.218 44.1413 176.362 42.1573 174.997 39.64C173.631 37.1227 172.949 34.264 172.949 31.064C172.949 27.864 173.631 25.0267 174.997 22.552C176.362 20.0347 178.218 18.072 180.565 16.664C182.911 15.2133 185.578 14.488 188.565 14.488C190.954 14.488 193.045 14.936 194.837 15.832C196.629 16.728 198.079 17.9867 199.189 19.608V0.919998H207.381V47H200.085L199.189 42.456C198.165 43.864 196.799 45.1013 195.093 46.168C193.429 47.2347 191.253 47.768 188.565 47.768ZM190.293 40.6C192.938 40.6 195.093 39.7253 196.757 37.976C198.463 36.184 199.317 33.9013 199.317 31.128C199.317 28.3547 198.463 26.0933 196.757 24.344C195.093 22.552 192.938 21.656 190.293 21.656C187.69 21.656 185.535 22.5307 183.829 24.28C182.122 26.0293 181.269 28.2907 181.269 31.064C181.269 33.8373 182.122 36.12 183.829 37.912C185.535 39.704 187.69 40.6 190.293 40.6ZM220.139 10.328C218.645 10.328 217.408 9.88 216.427 8.984C215.488 8.088 215.019 6.95733 215.019 5.592C215.019 4.22667 215.488 3.11733 216.427 2.264C217.408 1.368 218.645 0.919998 220.139 0.919998C221.632 0.919998 222.848 1.368 223.787 2.264C224.768 3.11733 225.259 4.22667 225.259 5.592C225.259 6.95733 224.768 8.088 223.787 8.984C222.848 9.88 221.632 10.328 220.139 10.328ZM216.043 47V15.256H224.235V47H216.043ZM232.785 61.08V15.256H240.081L240.977 19.8C242.001 18.392 243.345 17.1547 245.009 16.088C246.716 15.0213 248.913 14.488 251.601 14.488C254.588 14.488 257.254 15.2133 259.601 16.664C261.948 18.1147 263.804 20.0987 265.169 22.616C266.534 25.1333 267.217 27.992 267.217 31.192C267.217 34.392 266.534 37.2507 265.169 39.768C263.804 42.2427 261.948 44.2053 259.601 45.656C257.254 47.064 254.588 47.768 251.601 47.768C249.212 47.768 247.121 47.32 245.329 46.424C243.537 45.528 242.086 44.2693 240.977 42.648V61.08H232.785ZM249.873 40.6C252.476 40.6 254.63 39.7253 256.337 37.976C258.044 36.2267 258.897 33.9653 258.897 31.192C258.897 28.4187 258.044 26.136 256.337 24.344C254.63 22.552 252.476 21.656 249.873 21.656C247.228 21.656 245.052 22.552 243.345 24.344C241.681 26.0933 240.849 28.3547 240.849 31.128C240.849 33.9013 241.681 36.184 243.345 37.976C245.052 39.7253 247.228 40.6 249.873 40.6ZM289.959 47.768C286.759 47.768 283.922 47.0853 281.447 45.72C278.972 44.3547 277.031 42.4347 275.623 39.96C274.215 37.4853 273.511 34.6267 273.511 31.384C273.511 28.0987 274.194 25.176 275.559 22.616C276.967 20.056 278.887 18.072 281.319 16.664C283.794 15.2133 286.695 14.488 290.023 14.488C293.138 14.488 295.89 15.1707 298.279 16.536C300.668 17.9013 302.524 19.7787 303.847 22.168C305.212 24.5147 305.895 27.1387 305.895 30.04C305.895 30.5093 305.874 31 305.831 31.512C305.831 32.024 305.81 32.5573 305.767 33.112H281.639C281.81 35.5867 282.663 37.528 284.199 38.936C285.778 40.344 287.676 41.048 289.895 41.048C291.559 41.048 292.946 40.6853 294.055 39.96C295.207 39.192 296.06 38.2107 296.615 37.016H304.935C304.338 39.0213 303.335 40.856 301.927 42.52C300.562 44.1413 298.855 45.4213 296.807 46.36C294.802 47.2987 292.519 47.768 289.959 47.768ZM290.023 21.144C288.018 21.144 286.247 21.72 284.711 22.872C283.175 23.9813 282.194 25.688 281.767 27.992H297.575C297.447 25.9013 296.679 24.2373 295.271 23C293.863 21.7627 292.114 21.144 290.023 21.144ZM316.305 47.448C314.812 47.448 313.574 46.9787 312.593 46.04C311.654 45.1013 311.185 43.9707 311.185 42.648C311.185 41.2827 311.654 40.1307 312.593 39.192C313.574 38.2533 314.812 37.784 316.305 37.784C317.798 37.784 319.014 38.2533 319.953 39.192C320.934 40.1307 321.425 41.2827 321.425 42.648C321.425 43.9707 320.934 45.1013 319.953 46.04C319.014 46.9787 317.798 47.448 316.305 47.448Z" fill="white"/>
</svg>
